<svg xmlns="http://www.w3.org/2000/svg" viewBox="0 0 1200 900" role="img" aria-labelledby="title desc">
  <title id="title">Pahalgam</title>
  <desc id="desc">Stylized landscape poster for Pahalgam, Kashmir.</desc>
  <defs>
    <linearGradient id="sky" x1="0%" y1="0%" x2="0%" y2="100%">
      <stop offset="0%" stop-color="#19364b" />
      <stop offset="58%" stop-color="#71a8bb" />
      <stop offset="100%" stop-color="#d7f0e8" />
    </linearGradient>
    <linearGradient id="meadow" x1="0%" y1="0%" x2="100%" y2="100%">
      <stop offset="0%" stop-color="#7ca05b" />
      <stop offset="100%" stop-color="#35573a" />
    </linearGradient>
    <linearGradient id="river" x1="0%" y1="0%" x2="100%" y2="0%">
      <stop offset="0%" stop-color="#d6fbff" />
      <stop offset="100%" stop-color="#67d3e0" />
    </linearGradient>
  </defs>
  <rect width="1200" height="900" fill="url(#sky)" />
  <path d="M0 450 L166 270 L316 424 L498 226 L644 398 L828 244 L1024 430 L1200 336 V900 H0 Z" fill="#f1f7f4" />
  <path d="M0 566 L172 454 L344 544 L534 390 L714 570 L930 426 L1200 540 V900 H0 Z" fill="#7d9b8a" opacity="0.82" />
  <path d="M0 636 C206 560 396 548 586 622 C782 700 982 694 1200 596 V900 H0 Z" fill="url(#meadow)" />
  <path d="M450 900 C512 770 592 710 650 618 C694 548 742 514 818 486 C728 562 678 624 650 704 C628 766 616 828 608 900 Z" fill="url(#river)" opacity="0.95" />
  <g fill="#173328">
    <path d="M126 726 l42 -92 l42 92 z" />
    <path d="M188 752 l56 -130 l56 130 z" />
    <path d="M288 736 l46 -102 l46 102 z" />
    <path d="M918 732 l44 -100 l44 100 z" />
    <path d="M988 754 l58 -138 l58 138 z" />
    <path d="M1080 742 l42 -96 l42 96 z" />
  </g>
  <text x="92" y="766" fill="#ffffff" font-size="98" font-family="Georgia, serif" font-weight="700" letter-spacing="4">PAHALGAM</text>
  <text x="98" y="824" fill="#f9e3a1" font-size="28" font-family="Arial, sans-serif" letter-spacing="9">KASHMIR VALLEY RETREAT</text>
</svg>
